<?xml version="1.0" encoding="utf-8"?>
<!-- Generator: Adobe Illustrator 18.0.0, SVG Export Plug-In . SVG Version: 6.00 Build 0)  -->
<!DOCTYPE svg PUBLIC "-//W3C//DTD SVG 1.1//EN" "http://www.w3.org/Graphics/SVG/1.1/DTD/svg11.dtd">
<svg version="1.1" id="Layer_1" xmlns="http://www.w3.org/2000/svg" xmlns:xlink="http://www.w3.org/1999/xlink" x="0px" y="0px"
	 viewBox="0 0 64 64" enable-background="new 0 0 64 64" xml:space="preserve">
<g>
	<polygon fill="#2D2D2D" points="55,60 4,60 4,9 29,9 29,5 0,5 0,64 59,64 59,35 55,35 	"/>
	<path fill="#9FCCE2" d="M17,33.2V47h13.8l28-28l0,0l5-5L50,0.2l-5,5l0,0L17,33.2z M21,38.8l4.2,4.2H21V38.8z M30,42.2L21.8,34L45,10.8l8.2,8.2
		L30,42.2z M50,5.8l8.2,8.2L56,16.2L47.8,8L50,5.8z"/>
</g>
</svg>
